<svg xmlns="http://www.w3.org/2000/svg" width="720" height="680" viewBox="0 0 720 680"><defs><linearGradient id="shine"><stop stop-color="#FFFFFF" stop-opacity=".42"/><stop offset=".35" stop-color="#FFFFFF" stop-opacity="0"/><stop offset=".8" stop-color="#152B3C" stop-opacity=".10"/><stop offset="1" stop-color="#FFFFFF" stop-opacity=".25"/></linearGradient></defs><rect width="100%" height="100%" fill="#F5F2EB"/><g transform="translate(160,70) scale(2.2)"><ellipse cx="94" cy="210" rx="85" ry="9" fill="#152B3C" opacity=".10"/><defs><linearGradient id="surfaceV05"><stop stop-color="#e7d4eb"/><stop offset=".32" stop-color="#dcc1e2"/><stop offset=".78" stop-color="#bda2c3"/><stop offset="1" stop-color="#ddc3e3"/></linearGradient></defs><g transform="translate(40.49999999999999,0) scale(0.55,1)"><path d="M 83.5 200.0 Q 33 200 30.5 176.0 Q 28 152 31.0 123.0 Q 34 94 43.5 83.5 Q 53 73 50.0 58.5 Q 47 44 60.5 49.5 Q 74 55 84.5 39.5 Q 95 24 102.5 43.5 Q 110 63 124.5 71.5 Q 139 80 144.5 99.5 Q 150 119 148.5 146.0 Q 147 173 140.5 186.5 Q 134 200 83.5 200.0 Z" fill="#D7B8DE" stroke="#526575" stroke-width="1.2"/><path d="M43 107 Q37 144 45 178" fill="none" stroke="#FFFFFF" stroke-width="5" opacity=".32"/></g><rect x="77" y="23" width="26" height="20" rx="5" fill="#D5D7D1" stroke="#526575"/><rect x="65.0" y="1" width="50" height="38" rx="12" fill="#E9DAF2" stroke="#526575" stroke-width="1.1"/><text x="90" y="25" font-family="Arial" font-size="15" fill="#152B3C" text-anchor="middle">V</text></g><text x="360" y="610" font-family="Arial" font-size="18" fill="#152B3C" text-anchor="middle">Prism Pony / Side</text></svg>