<svg xmlns="http://www.w3.org/2000/svg" width="720" height="680" viewBox="0 0 720 680"><defs><linearGradient id="shine"><stop stop-color="#FFFFFF" stop-opacity=".42"/><stop offset=".35" stop-color="#FFFFFF" stop-opacity="0"/><stop offset=".8" stop-color="#152B3C" stop-opacity=".10"/><stop offset="1" stop-color="#FFFFFF" stop-opacity=".25"/></linearGradient></defs><rect width="100%" height="100%" fill="#F5F2EB"/><g transform="translate(160,70) scale(2.2)"><ellipse cx="94" cy="210" rx="85" ry="9" fill="#152B3C" opacity=".10"/><defs><linearGradient id="surfaceV18"><stop stop-color="#cdc8df"/><stop offset=".32" stop-color="#b6aed0"/><stop offset=".78" stop-color="#978fb2"/><stop offset="1" stop-color="#b9b2d2"/></linearGradient></defs><g transform="translate(40.49999999999999,0) scale(0.55,1)"><path d="M 90.0 200.0 Q 43 200 31.5 178.5 Q 20 157 30.0 113.0 Q 40 69 54.5 51.5 Q 69 34 89.5 34.0 Q 110 34 125.0 51.5 Q 140 69 150.0 113.0 Q 160 157 148.5 178.5 Q 137 200 90.0 200.0 Z" fill="#ACA3CA" stroke="#526575" stroke-width="1.2"/><path d="M43 107 Q37 144 45 178" fill="none" stroke="#FFFFFF" stroke-width="5" opacity=".32"/></g><rect x="77" y="23" width="26" height="20" rx="5" fill="#D5D7D1" stroke="#526575"/><rect x="64.0" y="0" width="52" height="39" rx="3" fill="#E0D8EB" stroke="#526575" stroke-width="1.1"/><text x="90" y="25" font-family="Arial" font-size="15" fill="#152B3C" text-anchor="middle">V</text></g><text x="360" y="610" font-family="Arial" font-size="18" fill="#152B3C" text-anchor="middle">Crystal Mood / Side</text></svg>