<svg xmlns="http://www.w3.org/2000/svg" width="1000" height="700" viewBox="0 0 1000 700"><defs><linearGradient id="shine"><stop stop-color="#FFFFFF" stop-opacity=".42"/><stop offset=".35" stop-color="#FFFFFF" stop-opacity="0"/><stop offset=".8" stop-color="#152B3C" stop-opacity=".10"/><stop offset="1" stop-color="#FFFFFF" stop-opacity=".25"/></linearGradient></defs><rect width="100%" height="100%" fill="#F5F2EB"/><text x="500" y="42" font-family="Arial" font-size="21" fill="#152B3C" text-anchor="middle">V08 / RAINBOW ARC / ENVELOPE STUDY</text><g transform="translate(145,105) scale(1.8)"><ellipse cx="94" cy="210" rx="85" ry="9" fill="#152B3C" opacity=".10"/><defs><linearGradient id="surfaceV08"><stop stop-color="#eecab5"/><stop offset=".32" stop-color="#e6b292"/><stop offset=".78" stop-color="#c89373"/><stop offset="1" stop-color="#e7b597"/></linearGradient></defs><g transform="translate(0,0) scale(1,1)"><path d="M 90.0 200.0 Q 31 200 27.0 151.5 Q 23 103 25.5 87.5 Q 28 72 36.5 59.0 Q 45 46 57.0 38.5 Q 69 31 90.0 31.0 Q 111 31 123.0 38.5 Q 135 46 143.5 59.0 Q 152 72 154.5 87.5 Q 157 103 153.0 151.5 Q 149 200 90.0 200.0 Z" fill="#E3A783" stroke="#526575" stroke-width="1.2"/><path d="M43 107 Q37 144 45 178" fill="none" stroke="#FFFFFF" stroke-width="5" opacity=".32"/><path d="M 45 152 V 108 Q 90 39 135 108 V 152" fill="none" stroke="#C4D9C4" stroke-width="5" opacity=".75"/><path d="M 57 152 V 108 Q 90 56 123 108 V 152" fill="none" stroke="#C4D9C4" stroke-width="5" opacity=".75"/><path d="M 69 152 V 108 Q 90 73 111 108 V 152" fill="none" stroke="#C4D9C4" stroke-width="5" opacity=".75"/><rect x="44" y="122" width="92" height="51" rx="7" fill="#F5F2EB" opacity=".93"/><text x="90" y="137" font-family="Arial" font-size="10" fill="#152B3C" text-anchor="middle">V E L O R I</text><text x="90" y="150" font-family="Arial" font-size="7" fill="#152B3C" text-anchor="middle">RAINBOW ARC</text><text x="90" y="162" font-family="Arial" font-size="5" fill="#152B3C" text-anchor="middle">35 mL / DESIGN STUDY</text></g><rect x="77" y="23" width="26" height="20" rx="5" fill="#D5D7D1" stroke="#526575"/><rect x="62.0" y="1" width="56" height="38" rx="9" fill="#C4D9C4" stroke="#526575" stroke-width="1.1"/><text x="90" y="25" font-family="Arial" font-size="15" fill="#152B3C" text-anchor="middle">V</text></g><g transform="translate(635,105) scale(1.8)"><ellipse cx="94" cy="210" rx="85" ry="9" fill="#152B3C" opacity=".10"/><defs><linearGradient id="surfaceV08"><stop stop-color="#eecab5"/><stop offset=".32" stop-color="#e6b292"/><stop offset=".78" stop-color="#c89373"/><stop offset="1" stop-color="#e7b597"/></linearGradient></defs><g transform="translate(40.49999999999999,0) scale(0.55,1)"><path d="M 90.0 200.0 Q 31 200 27.0 151.5 Q 23 103 25.5 87.5 Q 28 72 36.5 59.0 Q 45 46 57.0 38.5 Q 69 31 90.0 31.0 Q 111 31 123.0 38.5 Q 135 46 143.5 59.0 Q 152 72 154.5 87.5 Q 157 103 153.0 151.5 Q 149 200 90.0 200.0 Z" fill="#E3A783" stroke="#526575" stroke-width="1.2"/><path d="M43 107 Q37 144 45 178" fill="none" stroke="#FFFFFF" stroke-width="5" opacity=".32"/></g><rect x="77" y="23" width="26" height="20" rx="5" fill="#D5D7D1" stroke="#526575"/><rect x="62.0" y="1" width="56" height="38" rx="9" fill="#C4D9C4" stroke="#526575" stroke-width="1.1"/><text x="90" y="25" font-family="Arial" font-size="15" fill="#152B3C" text-anchor="middle">V</text></g><g stroke="#152B3C" stroke-width="1" fill="none"><path d="M130 100 H105 V480 H130 M160 495 V515 H455 V495 M646 495 V515 H835 V495"/></g><text x="70" y="295" font-family="Arial" font-size="14" fill="#152B3C" text-anchor="middle">95 mm</text><text x="305" y="540" font-family="Arial" font-size="14" fill="#152B3C" text-anchor="middle">66 mm</text><text x="740" y="540" font-family="Arial" font-size="14" fill="#152B3C" text-anchor="middle">36 mm</text><text x="500" y="587" font-family="Arial" font-size="12" fill="#152B3C" text-anchor="middle">OVERALL W x H x D, INCLUDING CLOSURE / NOT TO SCALE</text><text x="500" y="612" font-family="Arial" font-size="12" fill="#152B3C" text-anchor="middle">Capacity 35 mL; usable fill volume and headspace require CAD validation.</text><text x="500" y="640" font-family="Arial" font-size="11" fill="#152B3C" text-anchor="middle">Rounded envelope only. Not production CAD; tolerances and neck finish are not specified.</text></svg>