<svg xmlns="http://www.w3.org/2000/svg" width="1000" height="700" viewBox="0 0 1000 700"><defs><linearGradient id="shine"><stop stop-color="#FFFFFF" stop-opacity=".42"/><stop offset=".35" stop-color="#FFFFFF" stop-opacity="0"/><stop offset=".8" stop-color="#152B3C" stop-opacity=".10"/><stop offset="1" stop-color="#FFFFFF" stop-opacity=".25"/></linearGradient></defs><rect width="100%" height="100%" fill="#F5F2EB"/><text x="500" y="42" font-family="Arial" font-size="21" fill="#152B3C" text-anchor="middle">V11 / FLUTTER STUDIO / ENVELOPE STUDY</text><g transform="translate(145,105) scale(1.8)"><ellipse cx="94" cy="210" rx="85" ry="9" fill="#152B3C" opacity=".10"/><defs><linearGradient id="surfaceV11"><stop stop-color="#e8c8d4"/><stop offset=".32" stop-color="#ddafc0"/><stop offset=".78" stop-color="#be90a1"/><stop offset="1" stop-color="#deb3c3"/></linearGradient></defs><g transform="translate(0,0) scale(1,1)"><path d="M 67.0 189.0 Q 44 200 33.0 188.5 Q 22 177 23.5 158.5 Q 25 140 18.5 120.5 Q 12 101 15.0 83.0 Q 18 65 32.5 57.0 Q 47 49 61.0 60.0 Q 75 71 82.5 83.0 Q 90 95 97.5 83.0 Q 105 71 119.0 60.0 Q 133 49 147.5 57.0 Q 162 65 165.0 83.0 Q 168 101 161.5 120.5 Q 155 140 156.5 158.5 Q 158 177 147.0 188.5 Q 136 200 113.0 189.0 Q 90 178 67.0 189.0 Z" fill="#D8A4B7" stroke="#526575" stroke-width="1.2"/><path d="M43 107 Q37 144 45 178" fill="none" stroke="#FFFFFF" stroke-width="5" opacity=".32"/><rect x="44" y="122" width="92" height="51" rx="7" fill="#F5F2EB" opacity=".93"/><text x="90" y="137" font-family="Arial" font-size="10" fill="#152B3C" text-anchor="middle">V E L O R I</text><text x="90" y="150" font-family="Arial" font-size="7" fill="#152B3C" text-anchor="middle">FLUTTER STUDIO</text><text x="90" y="162" font-family="Arial" font-size="5" fill="#152B3C" text-anchor="middle">40 mL / DESIGN STUDY</text></g><rect x="77" y="23" width="26" height="20" rx="5" fill="#D5D7D1" stroke="#526575"/><rect x="61.0" y="4" width="58" height="35" rx="6" fill="#E4D3ED" stroke="#526575" stroke-width="1.1"/><text x="90" y="25" font-family="Arial" font-size="15" fill="#152B3C" text-anchor="middle">V</text></g><g transform="translate(635,105) scale(1.8)"><ellipse cx="94" cy="210" rx="85" ry="9" fill="#152B3C" opacity=".10"/><defs><linearGradient id="surfaceV11"><stop stop-color="#e8c8d4"/><stop offset=".32" stop-color="#ddafc0"/><stop offset=".78" stop-color="#be90a1"/><stop offset="1" stop-color="#deb3c3"/></linearGradient></defs><g transform="translate(40.49999999999999,0) scale(0.55,1)"><path d="M 67.0 189.0 Q 44 200 33.0 188.5 Q 22 177 23.5 158.5 Q 25 140 18.5 120.5 Q 12 101 15.0 83.0 Q 18 65 32.5 57.0 Q 47 49 61.0 60.0 Q 75 71 82.5 83.0 Q 90 95 97.5 83.0 Q 105 71 119.0 60.0 Q 133 49 147.5 57.0 Q 162 65 165.0 83.0 Q 168 101 161.5 120.5 Q 155 140 156.5 158.5 Q 158 177 147.0 188.5 Q 136 200 113.0 189.0 Q 90 178 67.0 189.0 Z" fill="#D8A4B7" stroke="#526575" stroke-width="1.2"/><path d="M43 107 Q37 144 45 178" fill="none" stroke="#FFFFFF" stroke-width="5" opacity=".32"/></g><rect x="77" y="23" width="26" height="20" rx="5" fill="#D5D7D1" stroke="#526575"/><rect x="61.0" y="4" width="58" height="35" rx="6" fill="#E4D3ED" stroke="#526575" stroke-width="1.1"/><text x="90" y="25" font-family="Arial" font-size="15" fill="#152B3C" text-anchor="middle">V</text></g><g stroke="#152B3C" stroke-width="1" fill="none"><path d="M130 100 H105 V480 H130 M160 495 V515 H455 V495 M646 495 V515 H835 V495"/></g><text x="70" y="295" font-family="Arial" font-size="14" fill="#152B3C" text-anchor="middle">98 mm</text><text x="305" y="540" font-family="Arial" font-size="14" fill="#152B3C" text-anchor="middle">78 mm</text><text x="740" y="540" font-family="Arial" font-size="14" fill="#152B3C" text-anchor="middle">34 mm</text><text x="500" y="587" font-family="Arial" font-size="12" fill="#152B3C" text-anchor="middle">OVERALL W x H x D, INCLUDING CLOSURE / NOT TO SCALE</text><text x="500" y="612" font-family="Arial" font-size="12" fill="#152B3C" text-anchor="middle">Capacity 40 mL; usable fill volume and headspace require CAD validation.</text><text x="500" y="640" font-family="Arial" font-size="11" fill="#152B3C" text-anchor="middle">Rounded envelope only. Not production CAD; tolerances and neck finish are not specified.</text></svg>