<svg xmlns="http://www.w3.org/2000/svg" width="1000" height="700" viewBox="0 0 1000 700"><defs><linearGradient id="shine"><stop stop-color="#FFFFFF" stop-opacity=".42"/><stop offset=".35" stop-color="#FFFFFF" stop-opacity="0"/><stop offset=".8" stop-color="#152B3C" stop-opacity=".10"/><stop offset="1" stop-color="#FFFFFF" stop-opacity=".25"/></linearGradient></defs><rect width="100%" height="100%" fill="#F5F2EB"/><text x="500" y="45" font-family="Arial" font-size="22" fill="#152B3C" text-anchor="middle">V13 / AERO LEAGUE / STUDY VIEWS</text><g transform="translate(95,85) scale(1.08)"><ellipse cx="94" cy="210" rx="85" ry="9" fill="#152B3C" opacity=".10"/><defs><linearGradient id="surfaceV13"><stop stop-color="#b0cdda"/><stop offset=".32" stop-color="#8cb5c8"/><stop offset=".78" stop-color="#6d96aa"/><stop offset="1" stop-color="#91b8cb"/></linearGradient></defs><g transform="translate(0,0) scale(1,1)"><path d="M 90.0 200.0 Q 69 200 54.0 188.0 Q 39 176 31.0 162.0 Q 23 148 23.0 110.0 Q 23 72 39.5 60.0 Q 56 48 73.0 43.0 Q 90 38 107.0 43.0 Q 124 48 140.5 60.0 Q 157 72 157.0 110.0 Q 157 148 149.0 162.0 Q 141 176 126.0 188.0 Q 111 200 90.0 200.0 Z" fill="#7CABC1" stroke="#526575" stroke-width="1.2"/><path d="M43 107 Q37 144 45 178" fill="none" stroke="#FFFFFF" stroke-width="5" opacity=".32"/><path d="M90 63 L90 176 M48 88 L90 63 L132 88" stroke="#E5C06B" fill="none" stroke-width="3"/><rect x="44" y="122" width="92" height="51" rx="7" fill="#F5F2EB" opacity=".93"/><text x="90" y="137" font-family="Arial" font-size="10" fill="#152B3C" text-anchor="middle">V E L O R I</text><text x="90" y="150" font-family="Arial" font-size="7" fill="#152B3C" text-anchor="middle">AERO LEAGUE</text><text x="90" y="162" font-family="Arial" font-size="5" fill="#152B3C" text-anchor="middle">40 mL / DESIGN STUDY</text></g><rect x="77" y="23" width="26" height="20" rx="5" fill="#D5D7D1" stroke="#526575"/><rect x="59.0" y="4" width="62" height="35" rx="4" fill="#E5C06B" stroke="#526575" stroke-width="1.1"/><text x="90" y="25" font-family="Arial" font-size="15" fill="#152B3C" text-anchor="middle">V</text></g><text x="188" y="337" font-family="Arial" font-size="11" fill="#152B3C" text-anchor="middle">FRONT / CLOSED</text><g transform="translate(420,85) scale(1.08)"><ellipse cx="94" cy="210" rx="85" ry="9" fill="#152B3C" opacity=".10"/><defs><linearGradient id="surfaceV13"><stop stop-color="#b0cdda"/><stop offset=".32" stop-color="#8cb5c8"/><stop offset=".78" stop-color="#6d96aa"/><stop offset="1" stop-color="#91b8cb"/></linearGradient></defs><g transform="translate(40.49999999999999,0) scale(0.55,1)"><path d="M 90.0 200.0 Q 69 200 54.0 188.0 Q 39 176 31.0 162.0 Q 23 148 23.0 110.0 Q 23 72 39.5 60.0 Q 56 48 73.0 43.0 Q 90 38 107.0 43.0 Q 124 48 140.5 60.0 Q 157 72 157.0 110.0 Q 157 148 149.0 162.0 Q 141 176 126.0 188.0 Q 111 200 90.0 200.0 Z" fill="#7CABC1" stroke="#526575" stroke-width="1.2"/><path d="M43 107 Q37 144 45 178" fill="none" stroke="#FFFFFF" stroke-width="5" opacity=".32"/></g><rect x="77" y="23" width="26" height="20" rx="5" fill="#D5D7D1" stroke="#526575"/><rect x="59.0" y="4" width="62" height="35" rx="4" fill="#E5C06B" stroke="#526575" stroke-width="1.1"/><text x="90" y="25" font-family="Arial" font-size="15" fill="#152B3C" text-anchor="middle">V</text></g><text x="513" y="337" font-family="Arial" font-size="11" fill="#152B3C" text-anchor="middle">SIDE / CLOSED</text><g transform="translate(745,85) scale(1.08)"><ellipse cx="94" cy="210" rx="85" ry="9" fill="#152B3C" opacity=".10"/><defs><linearGradient id="surfaceV13"><stop stop-color="#b0cdda"/><stop offset=".32" stop-color="#8cb5c8"/><stop offset=".78" stop-color="#6d96aa"/><stop offset="1" stop-color="#91b8cb"/></linearGradient></defs><g transform="translate(0,0) scale(1,1)"><path d="M 90.0 200.0 Q 69 200 54.0 188.0 Q 39 176 31.0 162.0 Q 23 148 23.0 110.0 Q 23 72 39.5 60.0 Q 56 48 73.0 43.0 Q 90 38 107.0 43.0 Q 124 48 140.5 60.0 Q 157 72 157.0 110.0 Q 157 148 149.0 162.0 Q 141 176 126.0 188.0 Q 111 200 90.0 200.0 Z" fill="#7CABC1" stroke="#526575" stroke-width="1.2"/><path d="M43 107 Q37 144 45 178" fill="none" stroke="#FFFFFF" stroke-width="5" opacity=".32"/><rect x="49" y="119" width="82" height="53" rx="5" fill="#F5F2EB" opacity=".95"/><text x="90" y="132" font-family="Arial" font-size="7" fill="#152B3C" text-anchor="middle">VELORI / V13</text><text x="90" y="143" font-family="Arial" font-size="5" fill="#152B3C" text-anchor="middle">INGREDIENTS: PENDING</text><text x="90" y="152" font-family="Arial" font-size="5" fill="#152B3C" text-anchor="middle">LOT / RP / PAO: PENDING</text><rect x="60.0" y="158" width="1.5" height="9" fill="#152B3C"/><rect x="62.4" y="158" width="0.7" height="9" fill="#152B3C"/><rect x="64.8" y="158" width="1.5" height="9" fill="#152B3C"/><rect x="67.2" y="158" width="0.7" height="9" fill="#152B3C"/><rect x="69.6" y="158" width="1.5" height="9" fill="#152B3C"/><rect x="72.0" y="158" width="0.7" height="9" fill="#152B3C"/><rect x="74.4" y="158" width="1.5" height="9" fill="#152B3C"/><rect x="76.8" y="158" width="0.7" height="9" fill="#152B3C"/><rect x="79.2" y="158" width="1.5" height="9" fill="#152B3C"/><rect x="81.6" y="158" width="0.7" height="9" fill="#152B3C"/><rect x="84.0" y="158" width="1.5" height="9" fill="#152B3C"/><rect x="86.4" y="158" width="0.7" height="9" fill="#152B3C"/><rect x="88.8" y="158" width="1.5" height="9" fill="#152B3C"/><rect x="91.2" y="158" width="0.7" height="9" fill="#152B3C"/><rect x="93.6" y="158" width="1.5" height="9" fill="#152B3C"/><rect x="96.0" y="158" width="0.7" height="9" fill="#152B3C"/><rect x="98.4" y="158" width="1.5" height="9" fill="#152B3C"/><rect x="100.8" y="158" width="0.7" height="9" fill="#152B3C"/><rect x="103.19999999999999" y="158" width="1.5" height="9" fill="#152B3C"/><rect x="105.6" y="158" width="0.7" height="9" fill="#152B3C"/><rect x="108.0" y="158" width="1.5" height="9" fill="#152B3C"/><rect x="110.4" y="158" width="0.7" height="9" fill="#152B3C"/><rect x="112.8" y="158" width="1.5" height="9" fill="#152B3C"/><rect x="115.19999999999999" y="158" width="0.7" height="9" fill="#152B3C"/></g><rect x="77" y="23" width="26" height="20" rx="5" fill="#D5D7D1" stroke="#526575"/><rect x="59.0" y="4" width="62" height="35" rx="4" fill="#E5C06B" stroke="#526575" stroke-width="1.1"/><text x="90" y="25" font-family="Arial" font-size="15" fill="#152B3C" text-anchor="middle">V</text></g><text x="838" y="337" font-family="Arial" font-size="11" fill="#152B3C" text-anchor="middle">BACK / CLOSED</text><g transform="translate(95,380) scale(1.08)"><ellipse cx="94" cy="210" rx="85" ry="9" fill="#152B3C" opacity=".10"/><path d="M 90.0 200.0 Q 69 200 54.0 188.0 Q 39 176 31.0 162.0 Q 23 148 23.0 110.0 Q 23 72 39.5 60.0 Q 56 48 73.0 43.0 Q 90 38 107.0 43.0 Q 124 48 140.5 60.0 Q 157 72 157.0 110.0 Q 157 148 149.0 162.0 Q 141 176 126.0 188.0 Q 111 200 90.0 200.0 Z" transform="translate(14,0)" fill="#7CABC1" stroke="#526575" stroke-width="1.4"/><defs><linearGradient id="surfaceV13"><stop stop-color="#b0cdda"/><stop offset=".32" stop-color="#8cb5c8"/><stop offset=".78" stop-color="#6d96aa"/><stop offset="1" stop-color="#91b8cb"/></linearGradient></defs><g transform="translate(10.799999999999999,0) scale(0.88,1)"><path d="M 90.0 200.0 Q 69 200 54.0 188.0 Q 39 176 31.0 162.0 Q 23 148 23.0 110.0 Q 23 72 39.5 60.0 Q 56 48 73.0 43.0 Q 90 38 107.0 43.0 Q 124 48 140.5 60.0 Q 157 72 157.0 110.0 Q 157 148 149.0 162.0 Q 141 176 126.0 188.0 Q 111 200 90.0 200.0 Z" fill="#7CABC1" stroke="#526575" stroke-width="1.2"/><path d="M43 107 Q37 144 45 178" fill="none" stroke="#FFFFFF" stroke-width="5" opacity=".32"/><path d="M90 63 L90 176 M48 88 L90 63 L132 88" stroke="#E5C06B" fill="none" stroke-width="3"/><rect x="44" y="122" width="92" height="51" rx="7" fill="#F5F2EB" opacity=".93"/><text x="90" y="137" font-family="Arial" font-size="10" fill="#152B3C" text-anchor="middle">V E L O R I</text><text x="90" y="150" font-family="Arial" font-size="7" fill="#152B3C" text-anchor="middle">AERO LEAGUE</text><text x="90" y="162" font-family="Arial" font-size="5" fill="#152B3C" text-anchor="middle">40 mL / DESIGN STUDY</text></g><rect x="77" y="23" width="26" height="20" rx="5" fill="#D5D7D1" stroke="#526575"/><rect x="59.0" y="4" width="62" height="35" rx="4" fill="#E5C06B" stroke="#526575" stroke-width="1.1"/><text x="90" y="25" font-family="Arial" font-size="15" fill="#152B3C" text-anchor="middle">V</text></g><text x="188" y="632" font-family="Arial" font-size="11" fill="#152B3C" text-anchor="middle">45 DEG / CLOSED</text><g transform="translate(420,380) scale(1.08)"><ellipse cx="94" cy="210" rx="85" ry="9" fill="#152B3C" opacity=".10"/><defs><linearGradient id="surfaceV13"><stop stop-color="#b0cdda"/><stop offset=".32" stop-color="#8cb5c8"/><stop offset=".78" stop-color="#6d96aa"/><stop offset="1" stop-color="#91b8cb"/></linearGradient></defs><g transform="translate(0,0) scale(1,1)"><path d="M 90.0 200.0 Q 69 200 54.0 188.0 Q 39 176 31.0 162.0 Q 23 148 23.0 110.0 Q 23 72 39.5 60.0 Q 56 48 73.0 43.0 Q 90 38 107.0 43.0 Q 124 48 140.5 60.0 Q 157 72 157.0 110.0 Q 157 148 149.0 162.0 Q 141 176 126.0 188.0 Q 111 200 90.0 200.0 Z" fill="#7CABC1" stroke="#526575" stroke-width="1.2"/><path d="M43 107 Q37 144 45 178" fill="none" stroke="#FFFFFF" stroke-width="5" opacity=".32"/><path d="M90 63 L90 176 M48 88 L90 63 L132 88" stroke="#E5C06B" fill="none" stroke-width="3"/><rect x="44" y="122" width="92" height="51" rx="7" fill="#F5F2EB" opacity=".93"/><text x="90" y="137" font-family="Arial" font-size="10" fill="#152B3C" text-anchor="middle">V E L O R I</text><text x="90" y="150" font-family="Arial" font-size="7" fill="#152B3C" text-anchor="middle">AERO LEAGUE</text><text x="90" y="162" font-family="Arial" font-size="5" fill="#152B3C" text-anchor="middle">40 mL / DESIGN STUDY</text></g><rect x="77" y="23" width="26" height="20" rx="5" fill="#D5D7D1" stroke="#526575"/><rect x="76" y="12" width="29" height="15" rx="3" fill="#D5D7D1"/><circle cx="99" cy="20" r="2" fill="#152B3C"/></g><text x="513" y="632" font-family="Arial" font-size="11" fill="#152B3C" text-anchor="middle">APPLICATOR EXPOSED</text><g transform="translate(745,380) scale(1.08)"><ellipse cx="94" cy="210" rx="85" ry="9" fill="#152B3C" opacity=".10"/><path d="M 90.0 200.0 Q 69 200 54.0 188.0 Q 39 176 31.0 162.0 Q 23 148 23.0 110.0 Q 23 72 39.5 60.0 Q 56 48 73.0 43.0 Q 90 38 107.0 43.0 Q 124 48 140.5 60.0 Q 157 72 157.0 110.0 Q 157 148 149.0 162.0 Q 141 176 126.0 188.0 Q 111 200 90.0 200.0 Z" transform="translate(14,0)" fill="#7CABC1" stroke="#526575" stroke-width="1.4"/><defs><linearGradient id="surfaceV13"><stop stop-color="#b0cdda"/><stop offset=".32" stop-color="#8cb5c8"/><stop offset=".78" stop-color="#6d96aa"/><stop offset="1" stop-color="#91b8cb"/></linearGradient></defs><g transform="translate(10.799999999999999,0) scale(0.88,1)"><path d="M 90.0 200.0 Q 69 200 54.0 188.0 Q 39 176 31.0 162.0 Q 23 148 23.0 110.0 Q 23 72 39.5 60.0 Q 56 48 73.0 43.0 Q 90 38 107.0 43.0 Q 124 48 140.5 60.0 Q 157 72 157.0 110.0 Q 157 148 149.0 162.0 Q 141 176 126.0 188.0 Q 111 200 90.0 200.0 Z" fill="#7CABC1" stroke="#526575" stroke-width="1.2"/><path d="M43 107 Q37 144 45 178" fill="none" stroke="#FFFFFF" stroke-width="5" opacity=".32"/><path d="M90 63 L90 176 M48 88 L90 63 L132 88" stroke="#E5C06B" fill="none" stroke-width="3"/><rect x="44" y="122" width="92" height="51" rx="7" fill="#F5F2EB" opacity=".93"/><text x="90" y="137" font-family="Arial" font-size="10" fill="#152B3C" text-anchor="middle">V E L O R I</text><text x="90" y="150" font-family="Arial" font-size="7" fill="#152B3C" text-anchor="middle">AERO LEAGUE</text><text x="90" y="162" font-family="Arial" font-size="5" fill="#152B3C" text-anchor="middle">40 mL / DESIGN STUDY</text></g><rect x="77" y="23" width="26" height="20" rx="5" fill="#D5D7D1" stroke="#526575"/><rect x="76" y="12" width="29" height="15" rx="3" fill="#D5D7D1"/><circle cx="99" cy="20" r="2" fill="#152B3C"/></g><text x="838" y="632" font-family="Arial" font-size="11" fill="#152B3C" text-anchor="middle">45 DEG / EXPOSED</text></svg>