<svg xmlns="http://www.w3.org/2000/svg" width="720" height="680" viewBox="0 0 720 680"><defs><linearGradient id="shine"><stop stop-color="#FFFFFF" stop-opacity=".42"/><stop offset=".35" stop-color="#FFFFFF" stop-opacity="0"/><stop offset=".8" stop-color="#152B3C" stop-opacity=".10"/><stop offset="1" stop-color="#FFFFFF" stop-opacity=".25"/></linearGradient></defs><rect width="100%" height="100%" fill="#F5F2EB"/><g transform="translate(160,70) scale(2.2)"><ellipse cx="94" cy="210" rx="85" ry="9" fill="#152B3C" opacity=".10"/><path d="M 90.0 200.0 Q 54 200 43.5 185.0 Q 33 170 29.0 145.0 Q 25 120 32.0 102.0 Q 39 84 50.5 77.0 Q 62 70 67.0 55.0 Q 72 40 90.0 40.0 Q 108 40 113.0 55.0 Q 118 70 129.5 77.0 Q 141 84 148.0 102.0 Q 155 120 151.0 145.0 Q 147 170 136.5 185.0 Q 126 200 90.0 200.0 Z" transform="translate(14,0)" fill="#C989A1" stroke="#526575" stroke-width="1.4"/><defs><linearGradient id="surfaceV16"><stop stop-color="#dfb8c7"/><stop offset=".32" stop-color="#cf97ac"/><stop offset=".78" stop-color="#b1798e"/><stop offset="1" stop-color="#d29cb0"/></linearGradient></defs><g transform="translate(10.799999999999999,0) scale(0.88,1)"><path d="M 90.0 200.0 Q 54 200 43.5 185.0 Q 33 170 29.0 145.0 Q 25 120 32.0 102.0 Q 39 84 50.5 77.0 Q 62 70 67.0 55.0 Q 72 40 90.0 40.0 Q 108 40 113.0 55.0 Q 118 70 129.5 77.0 Q 141 84 148.0 102.0 Q 155 120 151.0 145.0 Q 147 170 136.5 185.0 Q 126 200 90.0 200.0 Z" fill="#C989A1" stroke="#526575" stroke-width="1.2"/><path d="M43 107 Q37 144 45 178" fill="none" stroke="#FFFFFF" stroke-width="5" opacity=".32"/><path d="M65 58 L55 179 M115 58 L125 179 M90 55 L90 183" stroke="#FFFFFF" opacity=".35" fill="none" stroke-width="2"/><rect x="44" y="122" width="92" height="51" rx="7" fill="#F5F2EB" opacity=".93"/><text x="90" y="137" font-family="Arial" font-size="10" fill="#152B3C" text-anchor="middle">V E L O R I</text><text x="90" y="150" font-family="Arial" font-size="7" fill="#152B3C" text-anchor="middle">PETAL EDIT</text><text x="90" y="162" font-family="Arial" font-size="5" fill="#152B3C" text-anchor="middle">50 mL / DESIGN STUDY</text></g><rect x="77" y="23" width="26" height="20" rx="5" fill="#D5D7D1" stroke="#526575"/><rect x="66.0" y="0" width="48" height="39" rx="4" fill="#E9D6CC" stroke="#526575" stroke-width="1.1"/><text x="90" y="25" font-family="Arial" font-size="15" fill="#152B3C" text-anchor="middle">V</text></g><text x="360" y="610" font-family="Arial" font-size="18" fill="#152B3C" text-anchor="middle">Petal Edit / Perspective</text></svg>