<svg xmlns="http://www.w3.org/2000/svg" width="1000" height="700" viewBox="0 0 1000 700"><defs><linearGradient id="shine"><stop stop-color="#FFFFFF" stop-opacity=".42"/><stop offset=".35" stop-color="#FFFFFF" stop-opacity="0"/><stop offset=".8" stop-color="#152B3C" stop-opacity=".10"/><stop offset="1" stop-color="#FFFFFF" stop-opacity=".25"/></linearGradient></defs><rect width="100%" height="100%" fill="#F5F2EB"/><text x="500" y="42" font-family="Arial" font-size="21" fill="#152B3C" text-anchor="middle">V03 / LITTLE COMET / ENVELOPE STUDY</text><g transform="translate(145,105) scale(1.8)"><ellipse cx="94" cy="210" rx="85" ry="9" fill="#152B3C" opacity=".10"/><defs><linearGradient id="surfaceV03"><stop stop-color="#f1d8a4"/><stop offset=".32" stop-color="#eac67a"/><stop offset=".78" stop-color="#cba75c"/><stop offset="1" stop-color="#ebc880"/></linearGradient></defs><g transform="translate(0,0) scale(1,1)"><path d="M 89.0 200.0 Q 45 200 50.0 177.0 Q 55 154 35.0 140.0 Q 15 126 37.5 117.0 Q 60 108 67.5 76.5 Q 75 45 85.0 40.0 Q 95 35 103.5 71.0 Q 112 107 137.0 115.0 Q 162 123 142.0 139.0 Q 122 155 127.5 177.5 Q 133 200 89.0 200.0 Z" fill="#E7BE68" stroke="#526575" stroke-width="1.2"/><path d="M43 107 Q37 144 45 178" fill="none" stroke="#FFFFFF" stroke-width="5" opacity=".32"/><rect x="44" y="122" width="92" height="51" rx="7" fill="#F5F2EB" opacity=".93"/><text x="90" y="137" font-family="Arial" font-size="10" fill="#152B3C" text-anchor="middle">V E L O R I</text><text x="90" y="150" font-family="Arial" font-size="7" fill="#152B3C" text-anchor="middle">LITTLE COMET</text><text x="90" y="162" font-family="Arial" font-size="5" fill="#152B3C" text-anchor="middle">25 mL / DESIGN STUDY</text></g><rect x="77" y="23" width="26" height="20" rx="5" fill="#D5D7D1" stroke="#526575"/><rect x="58.0" y="4" width="64" height="36" rx="13" fill="#DDE7F2" stroke="#526575" stroke-width="1.1"/><text x="90" y="25" font-family="Arial" font-size="15" fill="#152B3C" text-anchor="middle">V</text></g><g transform="translate(635,105) scale(1.8)"><ellipse cx="94" cy="210" rx="85" ry="9" fill="#152B3C" opacity=".10"/><defs><linearGradient id="surfaceV03"><stop stop-color="#f1d8a4"/><stop offset=".32" stop-color="#eac67a"/><stop offset=".78" stop-color="#cba75c"/><stop offset="1" stop-color="#ebc880"/></linearGradient></defs><g transform="translate(40.49999999999999,0) scale(0.55,1)"><path d="M 89.0 200.0 Q 45 200 50.0 177.0 Q 55 154 35.0 140.0 Q 15 126 37.5 117.0 Q 60 108 67.5 76.5 Q 75 45 85.0 40.0 Q 95 35 103.5 71.0 Q 112 107 137.0 115.0 Q 162 123 142.0 139.0 Q 122 155 127.5 177.5 Q 133 200 89.0 200.0 Z" fill="#E7BE68" stroke="#526575" stroke-width="1.2"/><path d="M43 107 Q37 144 45 178" fill="none" stroke="#FFFFFF" stroke-width="5" opacity=".32"/></g><rect x="77" y="23" width="26" height="20" rx="5" fill="#D5D7D1" stroke="#526575"/><rect x="58.0" y="4" width="64" height="36" rx="13" fill="#DDE7F2" stroke="#526575" stroke-width="1.1"/><text x="90" y="25" font-family="Arial" font-size="15" fill="#152B3C" text-anchor="middle">V</text></g><g stroke="#152B3C" stroke-width="1" fill="none"><path d="M130 100 H105 V480 H130 M160 495 V515 H455 V495 M646 495 V515 H835 V495"/></g><text x="70" y="295" font-family="Arial" font-size="14" fill="#152B3C" text-anchor="middle">85 mm</text><text x="305" y="540" font-family="Arial" font-size="14" fill="#152B3C" text-anchor="middle">62 mm</text><text x="740" y="540" font-family="Arial" font-size="14" fill="#152B3C" text-anchor="middle">33 mm</text><text x="500" y="587" font-family="Arial" font-size="12" fill="#152B3C" text-anchor="middle">OVERALL W x H x D, INCLUDING CLOSURE / NOT TO SCALE</text><text x="500" y="612" font-family="Arial" font-size="12" fill="#152B3C" text-anchor="middle">Capacity 25 mL; usable fill volume and headspace require CAD validation.</text><text x="500" y="640" font-family="Arial" font-size="11" fill="#152B3C" text-anchor="middle">Rounded envelope only. Not production CAD; tolerances and neck finish are not specified.</text></svg>