<svg xmlns="http://www.w3.org/2000/svg" width="1000" height="600" viewBox="0 0 1000 600"><defs><linearGradient id="shine"><stop stop-color="#FFFFFF" stop-opacity=".42"/><stop offset=".35" stop-color="#FFFFFF" stop-opacity="0"/><stop offset=".8" stop-color="#152B3C" stop-opacity=".10"/><stop offset="1" stop-color="#FFFFFF" stop-opacity=".25"/></linearGradient></defs><rect width="100%" height="100%" fill="#F5F2EB"/><g transform="translate(75,45) scale(2)"><polygon points="0,24 100,24 128,5 28,5" fill="#DDE7F2"/><polygon points="100,24 128,5 128,188 100,210" fill="#E7BE68"/><rect x="0" y="24" width="100" height="186" fill="#DDE7F2" stroke="#526575" stroke-width=".7"/><path d="M14 162 Q50 117 87 162 M14 176 Q50 131 87 176" fill="none" stroke="#E7BE68" stroke-width="3"/><text x="50" y="56" font-family="Arial" font-size="11" fill="#152B3C" text-anchor="middle">V E L O R I</text><text x="50" y="80" font-family="Arial" font-size="8" fill="#152B3C" text-anchor="middle">LITTLE COMET</text><text x="50" y="98" font-family="Arial" font-size="7" fill="#152B3C" text-anchor="middle">Little Magic</text><text x="50" y="191" font-family="Arial" font-size="6" fill="#152B3C" text-anchor="middle">25 mL / CONCEPT</text></g><g transform="translate(420,50) scale(2)"><ellipse cx="94" cy="210" rx="85" ry="9" fill="#152B3C" opacity=".10"/><path d="M 89.0 200.0 Q 45 200 50.0 177.0 Q 55 154 35.0 140.0 Q 15 126 37.5 117.0 Q 60 108 67.5 76.5 Q 75 45 85.0 40.0 Q 95 35 103.5 71.0 Q 112 107 137.0 115.0 Q 162 123 142.0 139.0 Q 122 155 127.5 177.5 Q 133 200 89.0 200.0 Z" transform="translate(14,0)" fill="#E7BE68" stroke="#526575" stroke-width="1.4"/><defs><linearGradient id="surfaceV03"><stop stop-color="#f1d8a4"/><stop offset=".32" stop-color="#eac67a"/><stop offset=".78" stop-color="#cba75c"/><stop offset="1" stop-color="#ebc880"/></linearGradient></defs><g transform="translate(10.799999999999999,0) scale(0.88,1)"><path d="M 89.0 200.0 Q 45 200 50.0 177.0 Q 55 154 35.0 140.0 Q 15 126 37.5 117.0 Q 60 108 67.5 76.5 Q 75 45 85.0 40.0 Q 95 35 103.5 71.0 Q 112 107 137.0 115.0 Q 162 123 142.0 139.0 Q 122 155 127.5 177.5 Q 133 200 89.0 200.0 Z" fill="#E7BE68" stroke="#526575" stroke-width="1.2"/><path d="M43 107 Q37 144 45 178" fill="none" stroke="#FFFFFF" stroke-width="5" opacity=".32"/><rect x="44" y="122" width="92" height="51" rx="7" fill="#F5F2EB" opacity=".93"/><text x="90" y="137" font-family="Arial" font-size="10" fill="#152B3C" text-anchor="middle">V E L O R I</text><text x="90" y="150" font-family="Arial" font-size="7" fill="#152B3C" text-anchor="middle">LITTLE COMET</text><text x="90" y="162" font-family="Arial" font-size="5" fill="#152B3C" text-anchor="middle">25 mL / DESIGN STUDY</text></g><rect x="77" y="23" width="26" height="20" rx="5" fill="#D5D7D1" stroke="#526575"/><rect x="58.0" y="4" width="64" height="36" rx="13" fill="#DDE7F2" stroke="#526575" stroke-width="1.1"/><text x="90" y="25" font-family="Arial" font-size="15" fill="#152B3C" text-anchor="middle">V</text></g><text x="500" y="535" font-family="Arial" font-size="20" fill="#152B3C" text-anchor="middle">Little Comet / RETAIL PACKAGING CONCEPT</text></svg>